# Blender 4.1.1
# www.blender.org
mtllib PlayerCore.mtl
o Cube
v -1.000000 1.000000 -1.000000
v -1.000000 -1.000000 -1.000000
v 1.000000 1.000000 -1.000000
v 1.000000 -1.000000 -1.000000
v -1.000000 1.000000 1.000000
v -1.000000 -1.000000 1.000000
v 1.000000 1.000000 1.000000
v 1.000000 -1.000000 1.000000
v -1.000000 0.000000 -1.000000
v 1.000000 0.000000 1.000000
v 1.000000 0.000000 -1.000000
v -1.000000 0.000000 1.000000
v -0.000000 -1.000000 1.000000
v 0.000000 1.000000 -1.000000
v -0.000000 1.000000 1.000000
v 0.000000 -1.000000 -1.000000
v 0.000000 0.000000 -1.000000
v -0.000000 0.000000 1.000000
v -1.000000 -1.000000 -0.000000
v 1.000000 1.000000 0.000000
v 1.000000 -1.000000 0.000000
v -1.000000 1.000000 -0.000000
v 1.000000 0.000000 0.000000
v 0.000000 -1.000000 0.000000
v 0.000000 1.000000 0.000000
v 1.000000 -1.000000 -0.500000
v -1.000000 1.000000 -0.500000
v -1.000000 0.000000 -0.500000
v 0.000000 1.000000 -0.500000
v -1.000000 -1.000000 -0.500000
v 1.000000 1.000000 -0.500000
v 1.000000 0.000000 -0.500000
v 0.000000 -1.000000 -0.500000
v -1.000000 -1.000000 0.500000
v 1.000000 1.000000 0.500000
v 1.000000 0.000000 0.500000
v -0.000000 -1.000000 0.500000
v 1.000000 -1.000000 0.500000
v -1.000000 1.000000 0.500000
v -1.000000 0.000000 0.500000
v -0.000000 1.000000 0.500000
v 1.000000 0.500000 1.000000
v -1.000000 0.500000 -1.000000
v 1.000000 0.500000 -1.000000
v -1.000000 0.500000 1.000000
v 0.000000 0.500000 -1.000000
v -0.000000 0.500000 1.000000
v -1.000000 0.500000 -0.000000
v 1.000000 0.500000 0.000000
v 1.000000 0.500000 -0.500000
v -1.000000 0.500000 -0.500000
v -1.000000 0.500000 0.500000
v 1.000000 0.500000 0.500000
v -1.000000 -0.500000 -1.000000
v 1.000000 -0.500000 -1.000000
v -1.000000 -0.500000 1.000000
v 1.000000 -0.500000 1.000000
v -0.000000 -0.500000 1.000000
v 0.000000 -0.500000 -1.000000
v 1.000000 -0.500000 0.000000
v -1.000000 -0.500000 -0.000000
v 1.000000 -0.500000 -0.500000
v -1.000000 -0.500000 -0.500000
v -1.000000 -0.500000 0.500000
v 1.000000 -0.500000 0.500000
v -2.139960 0.000000 -0.000000
v -2.139960 0.000000 -0.500000
v -2.139960 0.000000 0.500000
v -2.139960 0.500000 -0.000000
v -2.139960 0.500000 -0.500000
v -2.139960 0.500000 0.500000
v -2.139960 -0.500000 -0.000000
v -2.139960 -0.500000 -0.500000
v -2.139960 -0.500000 0.500000
vn -0.0000 1.0000 -0.0000
vn 1.0000 -0.0000 -0.0000
vn -0.0000 -0.0000 1.0000
vn -0.0000 -1.0000 -0.0000
vn -0.0000 -0.0000 -1.0000
vn -1.0000 -0.0000 -0.0000
vt 0.000000 0.166667
vt 0.083333 0.000000
vt 0.083333 0.166667
vt 0.250000 0.333333
vt 0.333333 0.416667
vt 0.250000 0.416667
vt 0.500000 0.000000
vt 0.666667 0.083333
vt 0.500000 0.083333
vt 0.333333 0.500000
vt 0.416667 0.333333
vt 0.416667 0.500000
vt 0.166667 0.666667
vt 0.333333 0.750000
vt 0.166667 0.750000
vt 0.583333 0.666667
vt 0.666667 0.750000
vt 0.583333 0.750000
vt 0.583333 0.833333
vt 0.666667 0.916667
vt 0.583333 0.916667
vt 0.166667 0.833333
vt 0.333333 0.916667
vt 0.166667 0.916667
vt 0.500000 0.166667
vt 0.666667 0.250000
vt 0.500000 0.250000
vt 0.250000 0.500000
vt 0.333333 0.583333
vt 0.250000 0.583333
vt 0.333333 0.166667
vt 0.333333 0.250000
vt 0.000000 0.833333
vt 0.000000 0.916667
vt 0.000000 0.666667
vt 0.000000 0.750000
vt 0.333333 0.666667
vt 0.416667 0.666667
vt 0.333333 0.000000
vt 0.333333 0.083333
vt 0.000000 0.333333
vt 0.083333 0.333333
vt 0.166667 0.333333
vt 0.250000 0.166667
vt 0.250000 0.333333
vt 0.500000 0.666667
vt 0.583333 0.500000
vt 0.583333 0.666667
vt 0.083333 0.500000
vt 0.166667 0.583333
vt 0.083333 0.583333
vt 0.833333 0.000000
vt 0.750000 0.189993
vt 0.750000 -0.000000
vt 0.416667 0.666667
vt 0.500000 0.750000
vt 0.416667 0.750000
vt 0.500000 0.500000
vt 0.583333 0.333333
vt 0.083333 0.333333
vt 0.166667 0.416667
vt 0.083333 0.416667
vt 0.166667 0.166667
vt 0.250000 0.000000
vt 0.333333 0.000000
vt 0.333333 0.166667
vt 0.000000 0.333333
vt 0.000000 0.416667
vt 0.000000 0.500000
vt 0.000000 0.583333
vt 0.333333 0.333333
vt 0.666667 0.379986
vt 0.750000 0.189993
vt 0.750000 0.379986
vt 0.500000 0.333333
vt 0.666667 0.333333
vt 0.666667 0.500000
vt 0.333333 0.666667
vt 0.333333 0.750000
vt 0.333333 0.833333
vt 0.416667 0.916667
vt 0.333333 0.916667
vt 0.666667 0.666667
vt 0.166667 0.500000
vt 0.166667 0.333333
vt 0.166667 0.000000
vt 0.416667 0.833333
vt 0.666667 0.189993
vt 0.666667 -0.000000
vt 0.750000 0.379986
vt 0.666667 0.569980
vt 0.666667 0.379986
vt 0.666667 0.833333
vt 0.333333 0.833333
vt 0.666667 0.166667
vt 0.333333 0.500000
vt 0.250000 0.666667
vt 0.166667 0.666667
vt 0.416667 1.000000
vt 0.333333 1.000000
vt 0.500000 0.916667
vt 0.583333 1.000000
vt 0.500000 1.000000
vt 0.083333 0.666667
vt 0.000000 0.666667
vt 0.166667 1.000000
vt 0.000000 1.000000
vt 0.500000 0.333333
vt 0.333333 0.333333
vt 0.333333 0.666667
vt 0.666667 0.333333
vt 0.333333 1.000000
vt 0.666667 1.000000
vt 0.666667 0.843306
vt 0.750000 0.926640
vt 0.666667 0.926640
vt 0.750000 0.843306
vt 0.833333 0.926640
vt 0.750000 0.759973
vt 0.833333 0.843306
vt 0.666667 0.759973
vt 0.833333 0.569980
vt 0.750000 0.759973
vt 0.750000 0.569980
vt 0.666667 0.759973
vt 0.666667 0.569980
vt 0.833333 0.379986
vt 0.750000 0.569980
vt 0.833333 0.189993
vt 0.833333 0.379986
vt 0.000000 0.000000
vt 0.333333 0.333333
vt 0.666667 0.000000
vt 0.333333 0.333333
vt 0.333333 0.666667
vt 0.666667 0.666667
vt 0.833333 0.189993
vt 0.666667 0.189993
vt 0.833333 0.759973
vt 0.833333 0.759973
vt 0.833333 0.569980
s 0
usemtl Material
f 15/1/1 35/2/1 41/3/1
f 35/4/2 42/5/2 53/6/2
f 15/7/3 45/8/3 47/9/3
f 16/10/4 26/11/4 33/12/4
f 14/13/5 44/14/5 46/15/5
f 27/16/6 43/17/6 51/18/6
f 28/19/6 54/20/6 63/21/6
f 17/22/5 55/23/5 59/24/5
f 18/25/3 56/26/3 58/27/3
f 36/28/2 57/29/2 65/30/2
f 10/31/3 58/27/3 57/32/3
f 9/33/5 59/24/5 54/34/5
f 1/35/5 46/15/5 43/36/5
f 2/37/4 33/12/4 30/38/4
f 7/39/3 47/9/3 42/40/3
f 5/41/1 41/3/1 39/42/1
f 22/43/1 29/44/1 27/45/1
f 19/46/4 37/47/4 34/48/4
f 32/49/2 60/50/2 62/51/2
f 63/52/5 67/53/5 28/54/5
f 39/55/6 48/56/6 52/57/6
f 24/58/4 38/59/4 37/47/4
f 31/60/2 49/61/2 50/62/2
f 25/63/1 31/64/1 29/44/1
f 29/44/1 3/65/1 14/66/1
f 3/67/2 50/62/2 44/68/2
f 11/69/2 62/51/2 55/70/2
f 27/45/1 14/66/1 1/71/1
f 30/38/4 24/58/4 19/46/4
f 52/72/3 68/73/3 40/74/3
f 22/46/6 51/18/6 48/56/6
f 33/12/4 21/75/4 24/58/4
f 37/47/4 8/76/4 13/77/4
f 5/78/6 52/57/6 45/79/6
f 12/80/6 64/81/6 56/82/6
f 34/48/4 13/77/4 6/83/4
f 39/42/1 25/63/1 22/43/1
f 23/84/2 65/30/2 60/50/2
f 20/85/2 53/6/2 49/61/2
f 41/3/1 20/86/1 25/63/1
f 49/61/2 36/28/2 23/84/2
f 45/79/6 40/87/6 12/80/6
f 28/54/5 70/88/5 51/89/5
f 44/68/2 32/49/2 11/69/2
f 50/62/2 23/84/2 32/49/2
f 48/90/1 71/91/1 52/92/1
f 42/40/3 18/25/3 10/31/3
f 43/36/5 17/22/5 9/33/5
f 51/18/6 9/93/6 28/19/6
f 46/15/5 11/94/5 17/22/5
f 47/9/3 12/95/3 18/25/3
f 53/6/2 10/96/2 36/28/2
f 60/50/2 38/97/2 21/98/2
f 56/82/6 34/99/6 6/100/6
f 61/101/6 30/102/6 19/103/6
f 55/70/2 26/104/2 4/105/2
f 64/81/6 19/103/6 34/99/6
f 62/51/2 21/98/2 26/104/2
f 54/34/5 16/106/5 2/107/5
f 57/32/3 13/108/3 8/109/3
f 65/30/2 8/110/2 38/97/2
f 58/27/3 6/111/3 13/108/3
f 59/24/5 4/112/5 16/106/5
f 63/21/6 2/113/6 30/102/6
f 68/114/6 72/115/6 74/116/6
f 66/117/6 73/118/6 72/115/6
f 69/119/6 67/120/6 66/117/6
f 71/121/6 66/117/6 68/114/6
f 64/122/4 72/123/4 61/124/4
f 61/124/4 73/125/4 63/126/4
f 51/127/1 69/128/1 48/90/1
f 40/74/3 74/129/3 64/130/3
f 15/1/1 7/131/1 35/2/1
f 35/4/2 7/132/2 42/5/2
f 15/7/3 5/133/3 45/8/3
f 16/10/4 4/134/4 26/11/4
f 14/13/5 3/135/5 44/14/5
f 27/16/6 1/136/6 43/17/6
f 28/19/6 9/93/6 54/20/6
f 17/22/5 11/94/5 55/23/5
f 18/25/3 12/95/3 56/26/3
f 36/28/2 10/96/2 57/29/2
f 10/31/3 18/25/3 58/27/3
f 9/33/5 17/22/5 59/24/5
f 1/35/5 14/13/5 46/15/5
f 2/37/4 16/10/4 33/12/4
f 7/39/3 15/7/3 47/9/3
f 5/41/1 15/1/1 41/3/1
f 22/43/1 25/63/1 29/44/1
f 19/46/4 24/58/4 37/47/4
f 32/49/2 23/84/2 60/50/2
f 63/52/5 73/137/5 67/53/5
f 39/55/6 22/46/6 48/56/6
f 24/58/4 21/75/4 38/59/4
f 31/60/2 20/85/2 49/61/2
f 25/63/1 20/86/1 31/64/1
f 29/44/1 31/64/1 3/65/1
f 3/67/2 31/60/2 50/62/2
f 11/69/2 32/49/2 62/51/2
f 27/45/1 29/44/1 14/66/1
f 30/38/4 33/12/4 24/58/4
f 52/72/3 71/138/3 68/73/3
f 22/46/6 27/16/6 51/18/6
f 33/12/4 26/11/4 21/75/4
f 37/47/4 38/59/4 8/76/4
f 5/78/6 39/55/6 52/57/6
f 12/80/6 40/87/6 64/81/6
f 34/48/4 37/47/4 13/77/4
f 39/42/1 41/3/1 25/63/1
f 23/84/2 36/28/2 65/30/2
f 20/85/2 35/4/2 53/6/2
f 41/3/1 35/2/1 20/86/1
f 49/61/2 53/6/2 36/28/2
f 45/79/6 52/57/6 40/87/6
f 28/54/5 67/53/5 70/88/5
f 44/68/2 50/62/2 32/49/2
f 50/62/2 49/61/2 23/84/2
f 48/90/1 69/128/1 71/91/1
f 42/40/3 47/9/3 18/25/3
f 43/36/5 46/15/5 17/22/5
f 51/18/6 43/17/6 9/93/6
f 46/15/5 44/14/5 11/94/5
f 47/9/3 45/8/3 12/95/3
f 53/6/2 42/5/2 10/96/2
f 60/50/2 65/30/2 38/97/2
f 56/82/6 64/81/6 34/99/6
f 61/101/6 63/21/6 30/102/6
f 55/70/2 62/51/2 26/104/2
f 64/81/6 61/101/6 19/103/6
f 62/51/2 60/50/2 21/98/2
f 54/34/5 59/24/5 16/106/5
f 57/32/3 58/27/3 13/108/3
f 65/30/2 57/29/2 8/110/2
f 58/27/3 56/26/3 6/111/3
f 59/24/5 55/23/5 4/112/5
f 63/21/6 54/20/6 2/113/6
f 68/114/6 66/117/6 72/115/6
f 66/117/6 67/120/6 73/118/6
f 69/119/6 70/139/6 67/120/6
f 71/121/6 69/119/6 66/117/6
f 64/122/4 74/140/4 72/123/4
f 61/124/4 72/123/4 73/125/4
f 51/127/1 70/141/1 69/128/1
f 40/74/3 68/73/3 74/129/3
